<svg width="19" height="19" viewBox="0 0 19 19" fill="none" xmlns="http://www.w3.org/2000/svg">
<path d="M4.93085 12.223L8.86171 7.89025L1 3.55753C1 2.40213 2.31028 2.43422 2.96543 2.59469L12.3012 4.03892C13.6115 2.75514 16.5269 0.380149 17.7061 1.15042C18.8854 1.92068 16.2321 5.00175 14.758 6.446C15.2493 9.17403 16.2321 14.9189 16.2321 16.0743C16.2321 17.2297 15.2493 17.5186 14.758 17.5186L10.8271 9.81592L6.89628 13.6672L7.38764 16.5557C7.38764 17.7111 6.7325 18 6.40492 18L4.93085 15.1115C4.4395 15.4324 3.35851 15.978 2.96543 15.5929C2.57234 15.2078 3.45678 14.1487 3.94814 13.6672L1 12.223C1 11.4527 1.98271 11.5811 2.47407 11.7416L4.93085 12.223Z" fill="#F8F8F8" stroke="#1D4045"/>
</svg>
