<svg width="166" height="88" viewBox="0 0 166 88" fill="none" xmlns="http://www.w3.org/2000/svg">
<g filter="url(#filter0_d_95_4914)">
<path d="M135.53 79H27.0732C5.38185 76.9715 3.6989 61.8141 5.56884 54.4889C7.0648 40.9655 22.3983 38.1482 29.8781 38.4299C35.4879 38.4299 34.9191 36.6536 35.4879 35.0491C35.4879 26.2589 39.8511 20.6805 42.0327 18.9901C54.0003 8.84753 68.2119 10.8197 73.8217 13.0736C78.8627 13.8329 80.0549 13.0736 81.3015 11.3832C84.7297 6.59363 95.5131 -1.63309 111.221 3.77626C126.928 9.18561 132.725 18.99 133.66 23.2161C134.961 27.3563 137.766 29.0467 140.205 29.9778C147.996 31.6682 163.018 39.4441 160.774 57.0245C158.53 74.6049 143.01 79 135.53 79Z" fill="#F8F8F8"/>
<path d="M135.53 79H27.0732C5.38185 76.9715 3.6989 61.8141 5.56884 54.4889C7.0648 40.9655 22.3983 38.1482 29.8781 38.4299C35.4879 38.4299 34.9191 36.6536 35.4879 35.0491C35.4879 26.2589 39.8511 20.6805 42.0327 18.9901C54.0003 8.84753 68.2119 10.8197 73.8217 13.0736C78.8627 13.8329 80.0549 13.0736 81.3015 11.3832C84.7297 6.59363 95.5131 -1.63309 111.221 3.77626C126.928 9.18561 132.725 18.99 133.66 23.2161C134.961 27.3563 137.766 29.0467 140.205 29.9778C147.996 31.6682 163.018 39.4441 160.774 57.0245C158.53 74.6049 143.01 79 135.53 79Z" stroke="#1D4045" stroke-width="2"/>
</g>
<defs>
<filter id="filter0_d_95_4914" x="0" y="0.998047" width="166" height="87.002" filterUnits="userSpaceOnUse" color-interpolation-filters="sRGB">
<feFlood flood-opacity="0" result="BackgroundImageFix"/>
<feColorMatrix in="SourceAlpha" type="matrix" values="0 0 0 0 0 0 0 0 0 0 0 0 0 0 0 0 0 0 127 0" result="hardAlpha"/>
<feOffset dy="4"/>
<feGaussianBlur stdDeviation="2"/>
<feComposite in2="hardAlpha" operator="out"/>
<feColorMatrix type="matrix" values="0 0 0 0 0 0 0 0 0 0 0 0 0 0 0 0 0 0 0.25 0"/>
<feBlend mode="normal" in2="BackgroundImageFix" result="effect1_dropShadow_95_4914"/>
<feBlend mode="normal" in="SourceGraphic" in2="effect1_dropShadow_95_4914" result="shape"/>
</filter>
</defs>
</svg>
