<svg width="320" height="234" viewBox="0 0 320 234" fill="none" xmlns="http://www.w3.org/2000/svg">
<rect x="-6" y="170" width="326" height="68" fill="#9A5430"/>
<path d="M303 164.5L320 167.5V173H305.5L303 164.5Z" fill="#9A5430"/>
<path d="M269.5 166.5L288 166L289 172H249L269.5 166.5Z" fill="#9A5430"/>
<path d="M240 168L256 167.5L264.5 171H235.5L240 168Z" fill="#9A5430"/>
<path d="M190 168H225.5L237.5 171L171.5 172L190 168Z" fill="#9A5430"/>
<path d="M97 168L136 168.5L136.5 171.5L97.5 171L97 168Z" fill="#9A5430"/>
<path d="M38 166L96 168.5L107.5 171.5L36.5 171L38 166Z" fill="#9A5430"/>
<path d="M0 167L23.5 163.5L20 171L0 171.5V167Z" fill="#9A5430"/>
<path d="M208.5 123C207.143 156.473 184.644 123 162 123C139.356 123 112 144.882 112 125C112 88 137.356 73 160 73C182.644 73 210 86 208.5 123Z" fill="#FDDF62"/>
<rect y="125" width="324" height="34" fill="#5476D8"/>
<path d="M170.5 123.5H208.5L234 125L130.5 125.5L170.5 123.5Z" fill="#5770CA"/>
<rect x="24" y="124" width="8" height="3" fill="#5770CA"/>
<path d="M103.5 125L215 123.5L186 136L106.5 128.5L103.5 125Z" fill="#FBBA5C"/>
<path d="M206 125L216 123.5L214.5 128.5L201.5 129.5L206 125Z" fill="#FBBA5C"/>
<path d="M146 144.5H174.5L177.5 149.75L160 149.5L142.5 149.25L146 144.5Z" fill="#FBBA5C"/>
<path d="M121.5 141.5L198.5 142L192 145L125.5 144.5L121.5 141.5Z" fill="#FBBA5C"/>
<path d="M140.5 131.5L186.5 135.5L198 142L121.5 141.5L140.5 131.5Z" fill="#FBBA5C"/>
<path d="M119 129L142.5 131L131 137H117.5L119 129Z" fill="#FBBA5C"/>
<path d="M107 133.5L121 131L118 137L107 136V133.5Z" fill="#FBBA5C"/>
<path d="M185 133L198 130.5L207.5 137.5L187 138L185 133Z" fill="#FBBA5C"/>
<path d="M201 133L213 134L212.5 137H206L201 133Z" fill="#FBBA5C"/>
<path d="M0 157.5L26.5 155L23.5 164L0 167V157.5Z" fill="#C77043"/>
<path d="M52.5 155.5L116 158.5L134 168H69.5L52.5 155.5Z" fill="#C77043"/>
<path d="M114.5 158.5L159.5 159.5L180.5 170L133 169L114.5 158.5Z" fill="#C77043"/>
<path d="M158 160L205.5 158L230.5 168L177 169L158 160Z" fill="#C77043"/>
<path d="M204 158L228.5 157.5L254.5 168L228.5 168.749L204 158Z" fill="#C77043"/>
<path d="M227.5 157.5L285.5 153L287.5 165.5L253.5 168L227.5 157.5Z" fill="#C77043"/>
<path d="M300.5 156L321.5 157.5V167.5L303 164.5L300.5 156Z" fill="#C77043"/>
<path d="M42 152.5L54 155.5L70 167.5L38 166L42 152.5Z" fill="#C77043"/>
<path d="M30.5 147L43.5 144.5L31 186.5L14 182L30.5 147Z" fill="#A8531A"/>
<path d="M33.5 105.5L43.5 107.5V145L30.5 147L33.5 105.5Z" fill="#A8531A"/>
<path d="M284.5 145.5L297.5 141.5L308.5 184H292L284.5 145.5Z" fill="#A8531A"/>
<path d="M289.5 118L300.5 111.5L297.5 142L285 145.5L289.5 118Z" fill="#A8531A"/>
<path d="M4.5 4.5L9 2L31 18L11 47.5L4.5 4.5Z" fill="#52AA78"/>
<path d="M3 20.5L8 21.5L9.5 34L6.5 32L3 20.5Z" fill="#52AA78"/>
<path d="M31.5 21.5L34 20.5L76.5 85.5L56.5 84L31.5 21.5Z" fill="#52AA78"/>
<path d="M25.5 10.5L28 11L59.5 85.5L23 92L25.5 10.5Z" fill="#52AA78"/>
<path d="M37 27.5L73.5 31.5V34.5L55 54L37 27.5Z" fill="#52AA78"/>
<path d="M30 82.5H37L43 107.5L33 106.5L30 82.5Z" fill="#A8531A"/>
<path d="M9.9881 47L25 26L23.9881 111.5L6 95.5L9.9881 47Z" fill="#52AA78"/>
<path d="M61 27.5L70.5 30.5L69 33L46 28.5L61 27.5Z" fill="#52AA78"/>
<path d="M38 28.5L49.5 23.5L48.5 29.5L44.5 29L38 28.5Z" fill="#52AA78"/>
<path d="M58.5 99.5L69.5 91.5L72 101L68.5 110L58.5 99.5Z" fill="#52AA78"/>
<path d="M46.4707 85.7289L73.5001 81.5L73.0001 89.5L54.4707 104.229L46.4707 85.7289Z" fill="#52AA78"/>
<path d="M38.5 88.5L60.5 27L46.5 94.5H45L38.5 88.5Z" fill="#52AA78"/>
<path d="M1.5 99.5L21.5 103L12 124.5L2 111L1.5 99.5Z" fill="#52AA78"/>
<path d="M0 49H5V69.5L0 72.5V49Z" fill="#52AA78"/>
<path d="M5 46L10.5 46.5L8 76H3L5 46Z" fill="#52AA78"/>
<path d="M6 37L10.5 37.5L11 47H9L6 37Z" fill="#52AA78"/>
<path d="M-1 86.5L8.5 76.5L15.5 118.5L-1 97.5V86.5Z" fill="#52AA78"/>
<path d="M53.5 52L83.5 59L88.5 85L73 82L53.5 52Z" fill="#52AA78"/>
<path d="M68 57L78.5 52L59.5 42.5L69.5 43.5L68 57Z" fill="#52AA78"/>
<path d="M61 45.5L81 57L90 68L53.5 53L61 45.5Z" fill="#52AA78"/>
<path d="M63.5 44L70 47.5L69 50.5L62 46.5L63.5 44Z" fill="#52AA78"/>
<path d="M24 91H29L28 96L24 92.5V91Z" fill="#52AA78"/>
<path d="M279.5 46L301 49.5L304 75L268.5 51L279.5 46Z" fill="#52AA78"/>
<path d="M256 89.5L265 84.5L263 92L261 92.5L256 89.5Z" fill="#52AA78"/>
<path d="M248 87L262.5 69L315 51L244.5 99L248 87Z" fill="#52AA78"/>
<path d="M254.5 73.5L308 49L320 67L249.5 80L254.5 73.5Z" fill="#52AA78"/>
<path d="M263 103L320.5 44L320 88L263.5 117.5L263 103Z" fill="#52AA78"/>
<path d="M320 86V99V131.5L311.5 134.5L320 86Z" fill="#52AA78"/>
<path d="M311 90.5L320 86L317 115.5L307 126.5L311 90.5Z" fill="#52AA78"/>
<path d="M276 58.5H307.5L267 101.5L259.5 98L276 58.5Z" fill="#52AA78"/>
<path d="M303 44.5L307 48L307.5 49.5L303 51.5V44.5Z" fill="#52AA78"/>
<path d="M308.693 61.4976L278 118.5L275.193 110.998L270.693 61.9976L308.693 61.4976Z" fill="#52AA78"/>
<path d="M290 41.5L299 47.5V100L287.5 108L290 41.5Z" fill="#52AA78"/>
<path d="M296 73L316 44L311 100L305 108.5L296 73Z" fill="#52AA78"/>
<path d="M299 96L304 98.5L301 111.5L290 118L299 96Z" fill="#A8531A"/>
<path d="M0 167C2.16667 167 7.4 166.7 11 165.5C14.6 164.3 19.8333 164 22 164H23.5M23.5 164C20.6667 169.5 14.4 181.1 12 183.5M23.5 164L24.0217 162.5M12 183.5L6.5 185M12 183.5C16.4 182.3 20.8333 183 22.5 183.5C24 184.167 27.6 185.8 30 187C30.2273 187.114 30.4624 187.219 30.7029 187.317M37 188.5C35.793 188.5 33.0015 188.254 30.7029 187.317M30 87.5C30.2573 88.837 30.5199 90.3466 30.7768 92M30 87.5V79.5M30 87.5L28 97C26.5 95.0836 23.3 91.2508 22.5 91.2508C24.1667 96.3338 26.5 107.7 22.5 112.5C21.8333 111 20.4 107.6 20 106C17.8333 111.091 13.2 121.845 12 124.136M30.7029 187.317C32.3863 183.621 35.2997 176.056 38.0815 166.271M30.7768 92C32.5149 93.3338 36.742 95.0514 39.7456 91.2508M30.7768 92C31.2739 95.1986 31.7496 98.935 32.1247 103M39.7456 91.2508C40.5209 94.3524 41.3187 97.9975 42.0327 102M39.7456 91.2508C39.5026 90.2785 39.2618 89.3597 39.0265 88.5M32.1247 103C34.4382 104 39.6588 105.2 42.0327 102M32.1247 103C32.4449 106.471 32.6918 110.181 32.8159 114M42.0327 102C42.6732 105.591 43.2461 109.469 43.6747 113.5M32.8159 114C34.6604 115.5 39.4144 117.5 43.6747 113.5M32.8159 114C32.9215 117.246 32.9383 120.571 32.836 123.895M43.6747 113.5C44.0344 116.884 44.2923 120.375 44.4031 123.895M32.7976 125C34.9789 126.333 40.3572 128.1 44.4207 124.5M32.7976 125C32.6466 128.89 32.3279 132.766 31.7927 136.5M32.7976 125C32.8119 124.632 32.8247 124.264 32.836 123.895M44.4207 124.5C44.5364 128.847 44.4241 133.23 43.9985 137.5M44.4207 124.5C44.4153 124.298 44.4095 124.097 44.4031 123.895M31.7927 136.5C33.3608 138.833 37.9974 142.3 43.9985 137.5M31.7927 136.5C31.0968 141.355 30.0349 145.97 28.5 150.062M43.9985 137.5C43.8644 138.846 43.6991 140.181 43.5 141.5C43.089 144.223 42.6209 146.895 42.1109 149.5M28.5 150.062C28.1867 150.897 27.8537 151.711 27.5 152.5L26.8043 154.5M28.5 150.062C30.4073 152.541 35.7996 155.9 42.1109 149.5M42.1109 149.5C41.913 150.511 41.7088 151.511 41.4992 152.5M24.0217 162.5C26.0472 165.333 31.7384 169.9 38.2991 165.5M24.0217 162.5L26.8043 154.5M38.2991 165.5C38.2267 165.758 38.1542 166.015 38.0815 166.271M38.2991 165.5C39.4235 161.488 40.5204 157.118 41.4992 152.5M38.0815 166.271H46C47.6667 166.347 51.6 166.6 54 167C56.4 167.4 63.6667 167.5 67 167.5C69.8333 167.5 76.2 167.6 79 168C81.8 168.4 88.8333 168.5 92 168.5C93.1667 168.5 95.6323 168.217 96.5 168C98.5 167.5 103.167 167.833 106 168H126C129 168.167 135.7 168.7 138.5 169.5C141.3 170.3 150 170.167 154 170C157.833 170 166.1 170.1 168.5 170.5C170.9 170.9 179.167 169.667 183 169C186.667 168.5 196.1 167.6 204.5 168C212.9 168.4 219 168.167 221 168C222.667 168 227 168.2 231 169C235 169.8 242.667 168.333 246 167.5C247 167.333 250.6 167.2 257 168C263.4 168.8 267.667 167.667 269 167C272.167 166.333 280.4 165.3 288 166.5M288 166.5C287.132 164.186 285.897 159.364 285.319 153M288 166.5C290.559 167.667 297.11 169 302.839 165M288 166.5L291.194 178M293 184.5C291 184.333 286.5 184.2 284.5 185M293 184.5C294.2 184.1 298.167 183.667 300 183.5C301 183.5 303.3 183.6 304.5 184C305.7 184.4 308.667 184.5 310 184.5M293 184.5L291.194 178M315 184.5H310M310 184.5C309.133 182.833 307.775 179.762 306.228 175.5M299 95.5C298.185 97.2012 297.178 99.4223 296.083 102M299 95.5C295.8 102.3 290 107 287.5 108.5C287.5 106.5 286.167 104 285.5 103C284.708 109 279.837 115.833 277.5 118.5C277.1 115.7 275.333 113 274.5 112C270.9 115.2 266 116.667 264 117M299 95.5C299.439 94.1667 300.454 93.1 301 99.5L304 96.5M304.5 98C303.804 99.9493 303.001 102.506 302.201 105.5M304.5 98C303.3 103.6 304.333 107.667 305 109C307.24 104.6 310 100.5 311.371 100.5C308.5 106.5 306.667 119.038 307 124.057M304.5 98L304 96.5M296.083 102C296.523 103.833 298.361 107.1 302.201 105.5M296.083 102C294.888 104.813 293.588 108.05 292.316 111.5M302.201 105.5C301.481 108.189 300.763 111.231 300.123 114.5M292.316 111.5C293.793 113.167 297.422 116.1 300.123 114.5M292.316 111.5C291.191 114.55 290.088 117.765 289.1 121M300.123 114.5C299.625 117.048 299.175 119.734 298.809 122.5M289.1 121C290.106 122.667 293.457 125.3 298.809 122.5M289.1 121C288.789 122.019 288.489 123.039 288.203 124.057M298.809 122.5C298.741 123.016 298.676 123.535 298.614 124.057M286.49 131C286.058 133.074 285.718 135.088 285.5 137C285.305 138.707 285.172 140.377 285.092 142M286.49 131C288.645 132.5 293.959 134.7 297.977 131.5M286.49 131C286.962 128.737 287.545 126.404 288.203 124.057M297.977 131.5C297.801 135.01 297.81 138.546 298.073 142M297.977 131.5C298.103 128.993 298.323 126.499 298.614 124.057M285.092 142C286.944 143.5 292.131 145.6 298.073 142M285.092 142C284.898 145.954 285.017 149.633 285.31 152.908M298.073 142C298.254 144.384 298.556 146.729 299 149C299.267 150.364 299.543 151.698 299.826 153M285.319 153C288.596 155.167 296.086 158.2 299.826 153M285.319 153C285.316 152.969 285.313 152.938 285.31 152.908M299.826 153C300.009 153.847 300.196 154.68 300.386 155.5M302.839 165C303.993 169.025 305.156 172.548 306.228 175.5M302.839 165C302.745 164.67 302.65 164.337 302.556 164M291.194 178C294.448 180.167 302.01 182.7 306.228 175.5M302.556 164C306.37 165.167 315.2 167.4 320 167M302.556 164C301.816 161.365 301.084 158.525 300.386 155.5M300.386 155.5C302.59 156.167 309.6 157.4 320 157M285.31 152.908C281.04 152.772 271.1 152.9 265.5 154.5C259.9 156.1 244.167 156.5 237 156.5C229.167 156.5 211.7 156.8 204.5 158C197.3 159.2 189.5 159.167 186.5 159C181.833 158.667 170.1 158.2 160.5 159C150.9 159.8 143.5 159.333 141 159C139.5 159 135.3 159.1 130.5 159.5C125.7 159.9 117.5 158.667 114 158C109.167 157.333 95.9 156.2 81.5 157C67.1 157.8 48.8328 154.333 41.4992 152.5M26.8043 154.5C22.7029 155.667 11.6 157.8 0 157M32.836 123.895C28.0423 123.917 19.5729 123.99 12 124.136M0 124.5C2.91642 124.347 7.28441 124.227 12 124.136M44.4031 123.895C54.5076 124.544 77.3981 125.453 104 125.206M288.203 124.057C276.495 125.303 258.523 124.871 251 124.5C242.442 124.262 229.639 123.991 215 123.812M298.614 124.057H307M307 124.057L307.5 126.5C307.884 125.808 308.389 124.957 308.968 124.057M320 131C317.6 133.4 312.333 135.333 310 136C311.287 133.683 312.782 128.617 313.95 124.057M308.968 124.057C310.899 121.052 313.653 117.5 315.5 117.5C315.144 119.163 314.597 121.532 313.95 124.057M308.968 124.057H313.95M304 96.5C306.008 93.7754 309.817 87.8921 311.096 83.5M311.5 81.5C311.656 81.5333 311.823 81.5693 312 81.6076M311.5 81.5C311.541 81.3407 311.585 81.1739 311.632 81M311.5 81.5C311.474 81.7828 311.431 82.0781 311.371 82.384M320 83.5C318.88 83.1267 314.479 82.1436 312 81.6076M311.096 83.5C312.897 84.3333 317.2 87.3 320 92.5M311.096 83.5C311.208 83.1155 311.3 82.7425 311.371 82.384M311.096 83.5C309.064 79.5133 300.7 71.832 283.5 73C266.3 74.168 251.333 89.7322 246 97.3684M312 81.6076C313.833 80.2384 318 77.5 320 77.5M320 60.5C317.145 64.7819 314.63 71.3556 313 76.4048M313 76.4048C313.667 70.9365 314 58.5 310 52.5M313 76.4048C312.427 78.1804 311.963 79.7674 311.632 81M310 52.5C311.667 49.5 315.3 43.5 316.5 43.5V48L320 43.5M310 52.5C308.667 50.1667 305.4 45.3 303 44.5C303.5 46.6667 304.2 51.4 303 53C300.167 49.5 293.2 42.3 288 41.5C289.167 43 291.3 46.3 290.5 47.5C285.667 46.1667 274.3 45.1 267.5 51.5M267.5 51.5C275 51.1667 292.3 52.4 301.5 60C310.7 67.6 312.088 77.1667 311.632 81M267.5 51.5L278.5 58L274 58.5L276.5 61.5124M311.371 82.384C309.58 77.0894 303 65.6 291 62L292 65.5C288.891 63.773 282.681 61.3778 276.5 61.5124M311.371 82.384C290.867 74.2913 276.914 79.0121 272.5 82.384C276.5 81.8913 278.833 82.9227 279.5 83.5C272.7 85.1 266 90.1667 263.5 92.5M311.371 82.384C281.267 79.8913 267.247 104.423 264 117M263.5 92.5L260 93.5L260.5 90.5C258.278 90.1296 250.455 94.5888 246 97.3684M263.5 92.5C262.167 93.8333 259.3 97.1 258.5 99.5C260.167 99.1667 263.8 98.6 265 99C263.167 102.167 260.4 110.2 264 117M246 97.3684C245.644 97.5908 245.309 97.8024 245 98C244.2 91.2 252 82.1667 256 78.5L249.5 79.5C255.1 69.9 268.167 66.8333 274 66.5C273.2 65.7 270 64.1667 268.5 63.5C270.973 62.1396 273.734 61.5726 276.5 61.5124M112 125.097C118.546 124.98 125.255 124.787 132 124.5C154.242 123.554 183.413 123.494 208.5 123.74M112 125.097C111 107.898 119.3 73.5 160.5 73.5C201.7 73.5 209.667 106.994 208.5 123.74M112 125.097C109.303 125.146 106.633 125.182 104 125.206M208.5 123.74C210.701 123.762 212.87 123.786 215 123.812M215 123.812C216 125.541 216.6 129 211 129C205.4 129 202.333 129.333 201.5 129.5C199.167 130 195.9 131.3 201.5 132.5C202 132.667 203.4 133 205 133C207.833 133 213.5 133.4 213.5 135C213.5 136.6 209.833 137.333 208 137.5L196 137C192.5 137.333 186.8 138.3 192 139.5C195.833 140.5 201.8 142.8 195 144C188.2 145.2 181.167 144.833 178.5 144.5C175.833 144.333 171.6 144.6 176 147C180.4 149.4 175.167 150 172 150H148H146.5C144 149.833 140.2 148.9 145 146.5C149.8 144.1 142.333 144.167 138 144.5L126.5 144C122.833 143.5 117.7 141.9 126.5 139.5C135.3 137.1 123.833 136.833 117 137H110.5C106.667 136 101.9 133.7 113.5 132.5C125.1 131.3 119.667 130 115.5 129.5C111.333 129.471 103.2 128.571 104 125.206M30 79.5C30.8 81.5 33.6667 83.3333 35 84C35 82 35.6667 79.8333 36 79C36 80.2 37.3333 83.5 38 85C38.3216 86.0156 38.6676 87.1891 39.0265 88.5M30 79.5C30 75.1 28.3333 68.6667 27.5 66M12 124.136C11.4303 123.683 10.8029 123.134 10.1463 122.5M0 99.5C1.2 98.7 1.83333 99.1667 2 99.5C-0.809318 108.981 5.42459 117.942 10.1463 122.5M10.1463 122.5C5.0975 111.333 1.5 84.4 27.5 66M27.5 66C21.5268 65.8428 8.67453 67.5833 2.5343 75.5M27.5 66L27.1875 64.75M27.5 66C31.3422 61 43.2212 52.3 60 57.5C76.7788 62.7 86.3245 78.3333 89 85.5M27.5 66C43.9 58 58 64 63 68C60.6 68 58.3333 68.3333 57.5 68.5C65.9 72.5 70.3333 80.1667 71.5 83.5M27.5 66C30.3333 64.6667 39.2 64.7 52 75.5C64.8 86.3 67.2094 101.667 66.8141 108M0 86.5C1.2 82.6994 6.83333 77.5831 9.5 75.5C7.9 74.7 3.5 76.1667 1.5 77C1.81839 76.4769 2.16415 75.9772 2.5343 75.5M2.5343 75.5V70.5L0 73M26.875 63.5C22.5833 60.1667 11.2 54.5 0 58.5M26.875 63.5L26.6875 62.75M26.875 63.5L27.1875 64.75M26.875 63.5L28.8281 58.5M0 49.5C2 48.3 5.16667 48.6667 6.5 49L3 45.5C5.02573 45.1961 7.24381 45.7194 9.5 46.7678M9.5 46.7678C16.154 49.8598 23.1395 57.5193 26.5 62L26.6875 62.75M9.5 46.7678C8 44.1785 5.1 38.5 5.5 36.5C6.5 36.6667 8.8 36.9 10 36.5C7.66667 33.6667 3 26.5 3 20.5C3.66667 20.8333 5.5 21.4 7.5 21C6.16667 16.8333 3.9 7.2 5.5 2M5.5 2C9.33333 2.5 18.5 5.6 24.5 14C24.8333 13.6667 25.5 12.2 25.5 9C27 9.66667 30.3 13.2 31.5 22L34 19.5C35.5 20.6667 38.4 24.2 38 29M5.5 2C12.5 10.8333 26.5375 35.35 26.6875 62.75M38 29C40.3333 26.8333 46.2 22.7 51 23.5C49.8333 24.6667 47.5 27.3 47.5 28.5C53.8333 26.8333 68.3 25.7 75.5 34.5M38 29C36.5 30.6667 33.2 34.4 32 36C31.8333 35.5 31.5 33.9 31.5 31.5C29.125 31.5 24.9375 38.15 27.1875 64.75M75.5 34.5C72.6667 35.8333 66.6 39.4 65 43L70 43.5C69.8333 44.1667 69 45.9 67 47.5M75.5 34.5C72.5 32.6667 63.4 30.3 51 35.5C38.6 40.7 31.8333 51 30 55.5L28.8281 58.5M67 47.5C69.5 47.6667 75.3 48.9 78.5 52.5L74 54C78.3333 55.5 87.7 60.7 90.5 69.5C90.1667 69 88.4 67.7 84 66.5C85.6667 69.3333 89 77.1 89 85.5M67 47.5C64.3333 47.3333 58.1 47.2 54.5 48L58 43.5C53.7188 42.6667 41.8906 44.5 28.8281 58.5M89 85.5C87.1667 85.5 81.8 84.6 75 81L76.5 85.5C75.3333 85.3333 72.7 84.7 71.5 83.5M71.5 83.5L74 90.5H69C71.1667 94 74.1 103 68.5 111C68.1854 110.266 67.6235 109.212 66.8141 108M39.0265 88.5C41.4476 92.1 45.0176 94.3333 46.5 95C46.1 91 47 89 47.5 88.5L55 105.5C56.6 103.9 57.6667 100.833 58 99.5C62.1126 101.968 65.0506 105.359 66.8141 108" stroke="#1D4045" stroke-width="2"/>
</svg>
