<svg width="20" height="22" viewBox="0 0 20 22" fill="none" xmlns="http://www.w3.org/2000/svg">
<circle cx="10" cy="10" r="9.5" fill="#F8F8F8" stroke="#1D4045"/>
<path d="M9.99127 15.09C9.75127 15.09 9.56627 15.02 9.43627 14.88C9.30627 14.73 9.24127 14.525 9.24127 14.265V8.415C9.24127 8.155 9.30627 7.955 9.43627 7.815C9.56627 7.675 9.75127 7.605 9.99127 7.605C10.2313 7.605 10.4163 7.675 10.5463 7.815C10.6863 7.955 10.7563 8.155 10.7563 8.415V14.265C10.7563 14.525 10.6913 14.73 10.5613 14.88C10.4313 15.02 10.2413 15.09 9.99127 15.09ZM9.99127 6.045C9.69127 6.045 9.45627 5.97 9.28627 5.82C9.12627 5.67 9.04627 5.46 9.04627 5.19C9.04627 4.91 9.12627 4.7 9.28627 4.56C9.45627 4.41 9.69127 4.335 9.99127 4.335C10.2913 4.335 10.5213 4.41 10.6813 4.56C10.8513 4.7 10.9363 4.91 10.9363 5.19C10.9363 5.46 10.8513 5.67 10.6813 5.82C10.5213 5.97 10.2913 6.045 9.99127 6.045Z" fill="#1D4045"/>
</svg>
