<svg width="191" height="100" viewBox="0 0 191 100" fill="none" xmlns="http://www.w3.org/2000/svg">
<path d="M187.653 52.1158C190.819 59 186.021 62.213 182.758 61.9401H139.516C137.612 61.9401 132.336 63.25 126.462 68.4896C120.588 73.7292 104.977 85.955 97.906 91.4129C95.4583 93.5961 88.9313 97.9624 82.4042 97.9624H70.166C67.1744 98.2353 62.9862 97.1438 70.166 90.5942C77.3457 84.0447 87.8434 73.1289 92.1948 68.4896C94.0985 66.5793 96.111 62.7588 88.9313 62.7588H48.953C47.0493 63.0317 42.2628 61.9401 38.3466 55.3906C37.3554 53.733 36.1692 51.7608 34.9016 49.6597C31.1606 43.459 26.711 36.1362 24.4766 32.4673C23.3887 31.1028 23.1712 28.3738 31.0036 28.3738C34.2671 28.1009 41.2836 28.5376 43.2418 32.4673C44.6016 35.742 49.9322 42.2915 60.3754 42.2915H91.3788L67.7182 18.5495C62.4966 13.3099 66.6304 12.5458 69.35 12.8187H79.9565C87.1362 12.8187 91.1069 14.456 92.1947 15.2747L125.646 42.2915H170.52C174.171 42.0472 181.876 43.2898 186.26 49.6597C186.774 50.4061 187.242 51.2228 187.653 52.1158Z" fill="#F8F8F8"/>
<path d="M125.646 42.2915H170.52C174.171 42.0472 181.876 43.2898 186.26 49.6597M125.646 42.2915L92.1947 15.2747C91.1069 14.456 87.1362 12.8187 79.9565 12.8187C72.7767 12.8187 69.8939 12.8187 69.35 12.8187C66.6304 12.5458 62.4966 13.3099 67.7182 18.5495C72.9399 23.7891 85.6676 36.5607 91.3788 42.2915M125.646 42.2915H91.3788M91.3788 42.2915H60.3754C49.9322 42.2915 44.6016 35.742 43.2418 32.4673C41.2836 28.5376 34.2671 28.1009 31.0036 28.3738C23.1712 28.3738 23.3887 31.1028 24.4766 32.4673C26.711 36.1362 31.1606 43.459 34.9016 49.6597M35.8988 96.325H54.6641M15.5018 12H34.9016M0 96.325H10.6065M177.046 49.6597H186.26M186.26 49.6597C186.774 50.4061 187.242 51.2228 187.653 52.1158C190.819 59 186.021 62.213 182.758 61.9401H139.516C137.612 61.9401 132.336 63.25 126.462 68.4896C120.588 73.7292 104.977 85.955 97.906 91.4129C95.4583 93.5961 88.9313 97.9624 82.4042 97.9624C75.8772 97.9624 71.5258 97.9624 70.166 97.9624C67.1744 98.2353 62.9862 97.1438 70.166 90.5942C77.3458 84.0447 87.8434 73.1289 92.1948 68.4896C94.0985 66.5793 96.111 62.7588 88.9313 62.7588C81.7515 62.7588 59.2876 62.7588 48.953 62.7588C47.0493 63.0317 42.2628 61.9401 38.3466 55.3906C37.3554 53.733 36.1692 51.7608 34.9016 49.6597M172.151 49.6597H147.675M34.9016 49.6597H58.7435M62.8229 49.6597H65.2706" stroke="#1D4045" stroke-width="3"/>
<path d="M176.428 16H156.962C153.069 15.6312 152.766 12.8753 153.102 11.5434C153.371 9.08464 156.123 8.57239 157.465 8.62362C158.472 8.62362 158.37 8.30066 158.472 8.00892C158.472 6.4107 159.255 5.39645 159.647 5.0891C161.795 3.245 164.346 3.60358 165.353 4.01338C166.257 4.15145 166.471 4.01338 166.695 3.70603C167.31 2.83521 169.246 1.33944 172.065 2.32296C174.885 3.30647 175.925 5.0891 176.093 5.85747C176.326 6.61024 176.83 6.91759 177.268 7.08687C178.666 7.39422 181.362 8.80803 180.959 12.0045C180.557 15.2009 177.771 16 176.428 16Z" fill="#F8F8F8" stroke="#1D4045" stroke-width="2"/>
<path d="M149.449 94H125.811C121.083 93.5521 120.716 90.2057 121.124 88.5885C121.45 85.6028 124.792 84.9808 126.422 85.043C127.645 85.043 127.521 84.6508 127.645 84.2965C127.645 82.3559 128.596 81.1243 129.071 80.7511C131.68 78.5118 134.777 78.9472 136 79.4448C137.098 79.6125 137.358 79.4448 137.63 79.0716C138.377 78.0142 140.727 76.1979 144.151 77.3922C147.574 78.5864 148.837 80.751 149.041 81.6841C149.325 82.5981 149.936 82.9714 150.468 83.1769C152.166 83.5501 155.44 85.2669 154.951 89.1483C154.462 93.0297 151.079 94 149.449 94Z" fill="#F8F8F8" stroke="#1D4045" stroke-width="2"/>
</svg>
