<svg width="147" height="69" viewBox="0 0 147 69" fill="none" xmlns="http://www.w3.org/2000/svg">
<path d="M13.4947 55.32C12.668 55.32 12.028 55.0933 11.5747 54.64C11.148 54.16 10.9347 53.5067 10.9347 52.68V31.08H3.13469C2.44135 31.08 1.89469 30.8933 1.49469 30.52C1.12135 30.12 0.934687 29.5867 0.934687 28.92C0.934687 28.2267 1.12135 27.7067 1.49469 27.36C1.89469 26.9867 2.44135 26.8 3.13469 26.8H23.8547C24.548 26.8 25.0814 26.9867 25.4547 27.36C25.8547 27.7067 26.0547 28.2267 26.0547 28.92C26.0547 29.5867 25.8547 30.12 25.4547 30.52C25.0814 30.8933 24.548 31.08 23.8547 31.08H16.0547V52.68C16.0547 53.5067 15.8414 54.16 15.4147 54.64C14.988 55.0933 14.348 55.32 13.4947 55.32ZM27.9334 55.32C27.1068 55.32 26.4668 55.1067 26.0134 54.68C25.5868 54.2267 25.3734 53.5867 25.3734 52.76V37.64C25.3734 36.8133 25.5868 36.1867 26.0134 35.76C26.4401 35.3333 27.0401 35.12 27.8134 35.12C28.5868 35.12 29.1868 35.3333 29.6134 35.76C30.0401 36.1867 30.2534 36.8133 30.2534 37.64V40.16H29.8534C30.2268 38.56 30.9601 37.3467 32.0534 36.52C33.1468 35.6933 34.6001 35.2 36.4134 35.04C36.9734 34.9867 37.4134 35.1333 37.7334 35.48C38.0801 35.8 38.2801 36.3067 38.3334 37C38.3868 37.6667 38.2268 38.2133 37.8534 38.64C37.5068 39.04 36.9734 39.28 36.2534 39.36L35.3734 39.44C33.7468 39.6 32.5201 40.1067 31.6934 40.96C30.8668 41.7867 30.4534 42.96 30.4534 44.48V52.76C30.4534 53.5867 30.2401 54.2267 29.8134 54.68C29.3868 55.1067 28.7601 55.32 27.9334 55.32ZM43.5175 55.28C42.7175 55.28 42.1042 55.04 41.6775 54.56C41.2508 54.08 41.0375 53.4133 41.0375 52.56V37.88C41.0375 37 41.2508 36.3333 41.6775 35.88C42.1042 35.4 42.7175 35.16 43.5175 35.16C44.3175 35.16 44.9308 35.4 45.3575 35.88C45.8108 36.3333 46.0375 37 46.0375 37.88V52.56C46.0375 53.4133 45.8242 54.08 45.3975 54.56C44.9708 55.04 44.3442 55.28 43.5175 55.28ZM43.5175 31.44C42.5842 31.44 41.8508 31.2133 41.3175 30.76C40.8108 30.28 40.5575 29.6267 40.5575 28.8C40.5575 27.9467 40.8108 27.2933 41.3175 26.84C41.8508 26.3867 42.5842 26.16 43.5175 26.16C44.4775 26.16 45.2108 26.3867 45.7175 26.84C46.2242 27.2933 46.4775 27.9467 46.4775 28.8C46.4775 29.6267 46.2242 30.28 45.7175 30.76C45.2108 31.2133 44.4775 31.44 43.5175 31.44ZM53.7128 62.52C52.9128 62.52 52.2995 62.3067 51.8728 61.88C51.4461 61.4533 51.2328 60.8267 51.2328 60V37.64C51.2328 36.8133 51.4461 36.1867 51.8728 35.76C52.2995 35.3333 52.8995 35.12 53.6728 35.12C54.4728 35.12 55.0861 35.3333 55.5128 35.76C55.9395 36.1867 56.1528 36.8133 56.1528 37.64V40.76L55.7128 39.56C56.1128 38.2 56.9261 37.1067 58.1528 36.28C59.4061 35.4533 60.8595 35.04 62.5128 35.04C64.2195 35.04 65.7128 35.4533 66.9928 36.28C68.2995 37.1067 69.3128 38.28 70.0328 39.8C70.7528 41.2933 71.1128 43.0933 71.1128 45.2C71.1128 47.28 70.7528 49.0933 70.0328 50.64C69.3128 52.16 68.3128 53.3333 67.0328 54.16C65.7528 54.9867 64.2461 55.4 62.5128 55.4C60.8861 55.4 59.4595 55 58.2328 54.2C57.0061 53.3733 56.1795 52.3067 55.7528 51H56.2328V60C56.2328 60.8267 56.0061 61.4533 55.5528 61.88C55.1261 62.3067 54.5128 62.52 53.7128 62.52ZM61.1128 51.6C62.0995 51.6 62.9661 51.36 63.7128 50.88C64.4595 50.4 65.0328 49.6933 65.4328 48.76C65.8595 47.8 66.0728 46.6133 66.0728 45.2C66.0728 43.0667 65.6195 41.48 64.7128 40.44C63.8061 39.3733 62.6061 38.84 61.1128 38.84C60.1261 38.84 59.2595 39.08 58.5128 39.56C57.7661 40.0133 57.1795 40.72 56.7528 41.68C56.3528 42.6133 56.1528 43.7867 56.1528 45.2C56.1528 47.3067 56.6061 48.9067 57.5128 50C58.4195 51.0667 59.6195 51.6 61.1128 51.6ZM77.6972 62.52C76.8972 62.52 76.2839 62.3067 75.8572 61.88C75.4305 61.4533 75.2172 60.8267 75.2172 60V37.64C75.2172 36.8133 75.4305 36.1867 75.8572 35.76C76.2839 35.3333 76.8839 35.12 77.6572 35.12C78.4572 35.12 79.0705 35.3333 79.4972 35.76C79.9239 36.1867 80.1372 36.8133 80.1372 37.64V40.76L79.6972 39.56C80.0972 38.2 80.9105 37.1067 82.1372 36.28C83.3905 35.4533 84.8439 35.04 86.4972 35.04C88.2039 35.04 89.6972 35.4533 90.9772 36.28C92.2839 37.1067 93.2972 38.28 94.0172 39.8C94.7372 41.2933 95.0972 43.0933 95.0972 45.2C95.0972 47.28 94.7372 49.0933 94.0172 50.64C93.2972 52.16 92.2972 53.3333 91.0172 54.16C89.7372 54.9867 88.2305 55.4 86.4972 55.4C84.8705 55.4 83.4439 55 82.2172 54.2C80.9905 53.3733 80.1639 52.3067 79.7372 51H80.2172V60C80.2172 60.8267 79.9905 61.4533 79.5372 61.88C79.1105 62.3067 78.4972 62.52 77.6972 62.52ZM85.0972 51.6C86.0839 51.6 86.9505 51.36 87.6972 50.88C88.4439 50.4 89.0172 49.6933 89.4172 48.76C89.8439 47.8 90.0572 46.6133 90.0572 45.2C90.0572 43.0667 89.6039 41.48 88.6972 40.44C87.7905 39.3733 86.5905 38.84 85.0972 38.84C84.1105 38.84 83.2439 39.08 82.4972 39.56C81.7505 40.0133 81.1639 40.72 80.7372 41.68C80.3372 42.6133 80.1372 43.7867 80.1372 45.2C80.1372 47.3067 80.5905 48.9067 81.4972 50C82.4039 51.0667 83.6039 51.6 85.0972 51.6ZM108.842 55.4C106.628 55.4 104.722 54.9867 103.122 54.16C101.522 53.3333 100.282 52.16 99.4016 50.64C98.5482 49.12 98.1216 47.32 98.1216 45.24C98.1216 43.2133 98.5349 41.44 99.3616 39.92C100.215 38.4 101.375 37.2133 102.842 36.36C104.335 35.48 106.028 35.04 107.922 35.04C109.308 35.04 110.548 35.2667 111.642 35.72C112.762 36.1733 113.708 36.8267 114.482 37.68C115.282 38.5333 115.882 39.5733 116.282 40.8C116.708 42 116.922 43.36 116.922 44.88C116.922 45.36 116.748 45.7333 116.402 46C116.082 46.24 115.615 46.36 115.002 46.36H102.162V43.48H113.402L112.762 44.08C112.762 42.8533 112.575 41.8267 112.202 41C111.855 40.1733 111.335 39.5467 110.642 39.12C109.975 38.6667 109.135 38.44 108.122 38.44C107.002 38.44 106.042 38.7067 105.242 39.24C104.468 39.7467 103.868 40.48 103.442 41.44C103.042 42.3733 102.842 43.4933 102.842 44.8V45.08C102.842 47.2667 103.348 48.9067 104.362 50C105.402 51.0667 106.922 51.6 108.922 51.6C109.615 51.6 110.388 51.52 111.242 51.36C112.122 51.1733 112.948 50.8667 113.722 50.44C114.282 50.12 114.775 49.9867 115.202 50.04C115.628 50.0667 115.962 50.2133 116.202 50.48C116.468 50.7467 116.628 51.08 116.682 51.48C116.735 51.8533 116.655 52.24 116.442 52.64C116.255 53.04 115.922 53.3867 115.442 53.68C114.508 54.2667 113.428 54.7067 112.202 55C111.002 55.2667 109.882 55.4 108.842 55.4ZM123.441 55.32C122.615 55.32 121.975 55.1067 121.521 54.68C121.095 54.2267 120.881 53.5867 120.881 52.76V37.64C120.881 36.8133 121.095 36.1867 121.521 35.76C121.948 35.3333 122.548 35.12 123.321 35.12C124.095 35.12 124.695 35.3333 125.121 35.76C125.548 36.1867 125.761 36.8133 125.761 37.64V40.16H125.361C125.735 38.56 126.468 37.3467 127.561 36.52C128.655 35.6933 130.108 35.2 131.921 35.04C132.481 34.9867 132.921 35.1333 133.241 35.48C133.588 35.8 133.788 36.3067 133.841 37C133.895 37.6667 133.735 38.2133 133.361 38.64C133.015 39.04 132.481 39.28 131.761 39.36L130.881 39.44C129.255 39.6 128.028 40.1067 127.201 40.96C126.375 41.7867 125.961 42.96 125.961 44.48V52.76C125.961 53.5867 125.748 54.2267 125.321 54.68C124.895 55.1067 124.268 55.32 123.441 55.32Z" fill="#1D4045"/>
<path d="M65.0362 13.6666L59.1877 13.5242L61.0482 22.3059C60.1738 23.0612 59.3416 22.0487 59.0348 21.448L54.0248 13.4391C52.1968 13.2867 48.4937 12.633 48.3057 11.2371C48.1177 9.84119 52.1838 9.83498 54.2404 10.0064C55.9836 7.8512 59.6886 3.35205 60.563 2.59676C61.4373 1.84147 62.2983 2.39631 62.6195 2.76815L59.3602 10.7781L64.8443 11.2351L66.7089 8.97506C67.5833 8.21977 68.2302 8.52672 68.4443 8.77461L67.222 11.7783C67.7861 11.9404 68.9056 12.4017 68.8712 12.951C68.8367 13.5002 67.457 13.5233 66.7715 13.4661L67.6058 16.6412C67.0229 17.1448 66.4776 16.3172 66.2779 15.8404L65.0362 13.6666Z" stroke="#1D4045"/>
<path d="M133.5 36.5C137.5 36.8333 145.6 36.2 146 31C146.4 25.8 137.833 21.8333 133.5 20.5C124.833 18.1667 100.4 13.4 72 13" stroke="#1D4045" stroke-dasharray="2 2"/>
</svg>
