<svg width="16" height="27" viewBox="0 0 16 27" fill="none" xmlns="http://www.w3.org/2000/svg">
<mask id="path-1-inside-1_95_5710" fill="white">
<path fill-rule="evenodd" clip-rule="evenodd" d="M13.0076 17.5819C14.3983 15.7187 15.2594 13.1378 15.2594 10.2857C15.2594 4.60507 11.8435 0 7.6297 0C3.41593 0 0 4.60507 0 10.2857C0 13.1373 0.860769 15.7179 2.25114 17.5809L7.62962 27L13.0076 17.5819Z"/>
</mask>
<path fill-rule="evenodd" clip-rule="evenodd" d="M13.0076 17.5819C14.3983 15.7187 15.2594 13.1378 15.2594 10.2857C15.2594 4.60507 11.8435 0 7.6297 0C3.41593 0 0 4.60507 0 10.2857C0 13.1373 0.860769 15.7179 2.25114 17.5809L7.62962 27L13.0076 17.5819Z" fill="#387C85"/>
<path d="M13.0076 17.5819L11.8055 16.6846L11.7505 16.7582L11.705 16.8381L13.0076 17.5819ZM2.25114 17.5809L3.55373 16.8371L3.5082 16.7574L3.45328 16.6838L2.25114 17.5809ZM7.62962 27L6.32702 27.7438L7.62962 30.025L8.93221 27.7438L7.62962 27ZM13.7594 10.2857C13.7594 12.8474 12.984 15.1059 11.8055 16.6846L14.2096 18.4791C15.8127 16.3316 16.7594 13.4282 16.7594 10.2857H13.7594ZM7.6297 1.5C9.15143 1.5 10.6494 2.32819 11.82 3.90626C12.9904 5.48417 13.7594 7.73473 13.7594 10.2857H16.7594C16.7594 7.15606 15.8204 4.26375 14.2295 2.11897C12.6386 -0.0256531 10.3217 -1.5 7.6297 -1.5V1.5ZM1.5 10.2857C1.5 7.73473 2.26897 5.48417 3.43943 3.90626C4.61 2.32819 6.10797 1.5 7.6297 1.5V-1.5C4.93766 -1.5 2.62078 -0.0256531 1.02995 2.11897C-0.561002 4.26375 -1.5 7.15606 -1.5 10.2857H1.5ZM3.45328 16.6838C2.27513 15.1051 1.5 12.847 1.5 10.2857H-1.5C-1.5 13.4276 -0.553596 16.3306 1.04899 18.4781L3.45328 16.6838ZM8.93221 26.2562L3.55373 16.8371L0.948542 18.3247L6.32702 27.7438L8.93221 26.2562ZM11.705 16.8381L6.32702 26.2562L8.93221 27.7438L14.3102 18.3257L11.705 16.8381Z" fill="#1D4045" mask="url(#path-1-inside-1_95_5710)"/>
<circle cx="7.81581" cy="8.52626" r="2.80263" fill="#F8F8F8" stroke="#1D4045" stroke-width="1.5"/>
</svg>
